<!DOCTYPE svg PUBLIC "-//W3C//DTD SVG 1.1//EN" "http://www.w3.org/Graphics/SVG/1.1/DTD/svg11.dtd">
<!-- Uploaded to: SVG Repo, www.svgrepo.com, Transformed by: SVG Repo Mixer Tools -->
<svg version="1.1" id="Layer_1" xmlns="http://www.w3.org/2000/svg" xmlns:xlink="http://www.w3.org/1999/xlink" viewBox="0 0 512 512" xml:space="preserve" width="800px" height="800px" fill="#000000">
<g id="SVGRepo_bgCarrier" stroke-width="0"/>
<g id="SVGRepo_tracerCarrier" stroke-linecap="round" stroke-linejoin="round"/>
<g id="SVGRepo_iconCarrier"> <path style="fill:#E6E6E6;" d="M321.737,332.345H215.022c-38.649,0-69.981,31.331-69.981,69.981v102.723h246.676V402.326 C391.718,363.676,360.386,332.345,321.737,332.345z"/> <g> <path style="fill:#CCCCCC;" d="M258.141,332.345h-43.119c-38.649,0-69.981,31.331-69.981,69.981v102.723h43.119V402.326 C188.16,363.676,219.492,332.345,258.141,332.345z"/> <rect x="259.892" y="332.344" style="fill:#CCCCCC;" width="16.973" height="172.707"/> </g> <path style="fill:#64B4D8;" d="M317.944,339.089l-36.91,21.31c-2.529-4.371-7.245-7.32-12.659-7.32s-10.128,2.949-12.659,7.32 l-36.91-21.31v57.236l36.91-21.309c2.529,4.371,7.244,7.32,12.659,7.32c5.413,0,10.128-2.948,12.659-7.32l36.91,21.309V339.089z"/> <g> <circle style="fill:#4D4D4D;" cx="295.151" cy="480.564" r="8.298"/> <circle style="fill:#4D4D4D;" cx="295.151" cy="414.188" r="8.298"/> <circle style="fill:#4D4D4D;" cx="295.151" cy="447.376" r="8.298"/> </g> <path style="fill:#FCEA81;" d="M146.569,208.434H10.614C3.802,223.54,0,240.287,0,257.928c0,48.079,28.153,89.584,68.854,108.945 c6.156,2.931,13.307,2.931,19.463,0c40.713-19.361,68.854-60.866,68.854-108.945C157.171,240.287,153.38,223.54,146.569,208.434z M27.248,266.143c0-4.685,3.791-8.487,8.487-8.487h24.894c4.685,0,8.487,3.802,8.487,8.487c0,4.685-3.802,8.487-8.487,8.487H35.734 C31.038,274.629,27.248,270.827,27.248,266.143z M109.239,308.293c-0.181,0.498-0.407,1.018-0.656,1.607 c-0.306,0.566-0.69,1.154-1.086,1.81c-0.407,0.668-0.894,1.324-1.414,2.059c-0.509,0.747-1.132,1.313-1.754,2.037 c-0.622,0.69-1.324,1.369-2.059,2.093c-0.769,0.656-1.595,1.29-2.467,1.935c-0.86,0.668-1.788,1.301-2.795,1.822 c-0.996,0.566-2.037,1.109-3.112,1.641c-2.206,0.849-4.526,1.799-7.016,2.218c-2.455,0.611-5.024,0.735-7.581,0.86 c-2.569-0.124-5.137-0.238-7.593-0.837c-2.489-0.419-4.809-1.38-7.016-2.229c-1.075-0.52-2.116-1.064-3.112-1.629 c-0.498-0.283-0.996-0.532-1.46-0.849c-0.453-0.328-0.905-0.645-1.347-0.973c-0.871-0.645-1.697-1.29-2.467-1.935 c-0.724-0.724-1.426-1.403-2.059-2.093c-0.611-0.713-1.256-1.301-1.731-2.025c-0.487-0.724-0.962-1.369-1.347-2.014 c-0.396-0.656-0.781-1.233-1.075-1.799c-0.283-0.611-0.532-1.165-0.724-1.675c-0.826-2.037-1.075-3.27-1.075-3.27 s1.347,0.204,3.315,0.702c0.509,0.113,1.03,0.272,1.595,0.407c0.611,0.102,1.222,0.249,1.89,0.373 c1.301,0.283,2.67,0.656,4.209,0.871c0.758,0.124,1.505,0.306,2.286,0.453c0.803,0.09,1.607,0.204,2.41,0.339 c0.396,0.068,0.803,0.136,1.211,0.204c0.407,0.057,0.837,0.079,1.256,0.136c0.837,0.079,1.663,0.192,2.489,0.328 c1.731,0.045,3.406,0.339,5.149,0.351c1.709,0.181,3.451,0.079,5.194,0.192c1.731-0.113,3.474,0,5.194-0.181 c1.743,0,3.417-0.306,5.149-0.351c0.826-0.124,1.652-0.238,2.501-0.317c0.407-0.057,0.837-0.079,1.245-0.136 c0.407-0.079,0.803-0.147,1.211-0.204c0.803-0.136,1.607-0.249,2.422-0.339c0.769-0.147,1.516-0.328,2.274-0.464 c0.747-0.124,1.528-0.238,2.184-0.385c0.668-0.136,1.313-0.306,1.958-0.419c0.656-0.124,1.256-0.26,1.867-0.362 c0.6-0.17,1.143-0.351,1.663-0.475c2.037-0.554,3.327-0.724,3.327-0.724S109.997,306.312,109.239,308.293z M122.863,274.629H97.969 c-4.696,0-8.487-3.802-8.487-8.487c0-4.685,3.791-8.487,8.487-8.487h24.894c4.685,0,8.487,3.802,8.487,8.487 C131.349,270.827,127.547,274.629,122.863,274.629z"/> <g> <path style="fill:#E0B394;" d="M150.22,236.708c-14.031-0.622-25.199-12.198-25.199-26.376c0-14.574,11.813-26.399,26.399-26.399 c1.313,0,2.603,0.091,3.87,0.283"/> <path style="fill:#E0B394;" d="M386.509,236.708c14.031-0.622,25.211-12.198,25.211-26.376c0-14.574-11.825-26.399-26.41-26.399 c-1.313,0-2.614,0.102-3.87,0.283"/> </g> <path style="fill:#F7CBA4;" d="M353.018,317.062l-46.45,33.743c-22.778,16.543-53.612,16.543-76.379,0l-46.45-33.743 c-24.543-17.833-37.827-47.332-34.908-77.522l4.017-41.584l4.04-41.788c5.545-57.426,53.805-101.239,111.491-101.239 c28.843,0,55.332,10.953,75.293,29.081c19.972,18.139,33.426,43.451,36.198,72.158l3.904,40.396l4.153,42.976 C390.835,269.73,377.562,299.229,353.018,317.062z"/> <g> <path style="fill:#E0B394;" d="M177.737,255.966c-0.781,13.205,3.519,26.195,12.028,36.322l48.547,59.655 c2.535,3.021,5.409,5.556,8.521,7.581c-5.839-2.037-11.451-4.956-16.645-8.724l-46.45-33.743 c-24.543-17.833-37.816-47.321-34.897-77.522l8.045-83.372c5.499-56.86,52.866-100.379,109.816-101.205 c-35.078,0.849-74.798,33.912-76.869,69.126L177.737,255.966z"/> <path style="fill:#E0B394;" d="M383.774,196.564c-54.642-78.642-85.59-36.39-116.526-36.39c-7.559,0-14.529-1.018-20.877-2.693 c-29.748-7.83-45.884-30.122-45.884-30.122c0,29.42-46.303,73.777-46.303,73.777c-0.453-1.064-0.905-2.127-1.335-3.18l4.04-41.788 c5.545-57.426,53.805-101.239,111.491-101.239c28.843,0,55.332,10.953,75.293,29.081c19.972,18.139,33.426,43.451,36.198,72.158 L383.774,196.564z"/> </g> <path style="fill:#F9C573;" d="M393.979,195.252c-61.103-99.576-93.918-52.051-126.733-52.051c-7.559,0-14.529-1.018-20.877-2.693 c-29.748-7.83-45.884-30.122-45.884-30.122c0,29.42-46.303,73.777-46.303,73.777C99.959,57.656,213.906,41.294,213.906,41.294 c8.951-20.424,37.115-35.598,71.332-34.263c12.289,0.464,25.347,3.055,38.586,8.306C443.767,62.861,393.979,195.252,393.979,195.252 z"/> <path style="fill:#E2AF66;" d="M246.369,140.508c-29.748-7.83-45.884-30.122-45.884-30.122c0,29.42-46.303,73.777-46.303,73.777 C99.959,57.656,213.906,41.294,213.906,41.294c8.951-20.424,37.115-35.598,71.332-34.263 C283.405,7.744,210.85,36.734,246.369,140.508z"/> <g> <path style="fill:#F95428;" d="M501.624,337.43H368.588c-6.665,14.778-10.376,31.163-10.376,48.43 c0,47.049,27.53,87.661,67.372,106.603c6.02,2.874,13.013,2.874,19.044,0C484.458,473.52,512,432.909,512,385.86 C512,368.592,508.289,352.208,501.624,337.43z M384.566,393.136c0-4.685,3.802-8.487,8.487-8.487h24.034 c4.685,0,8.487,3.802,8.487,8.487s-3.802,8.487-8.487,8.487h-24.034C388.368,401.622,384.566,397.82,384.566,393.136z M461.782,441.373c-0.487-0.102-0.996-0.249-1.55-0.385c-0.588-0.079-1.188-0.215-1.833-0.328c-1.267-0.26-2.603-0.588-4.096-0.781 c-0.724-0.113-1.448-0.283-2.195-0.419c-0.781-0.068-1.562-0.17-2.331-0.294c-0.396-0.045-0.781-0.124-1.165-0.192 c-0.396-0.045-0.803-0.057-1.199-0.102c-0.815-0.079-1.607-0.181-2.41-0.294c-1.652-0.034-3.259-0.317-4.922-0.306 c-1.652-0.17-3.315-0.068-4.979-0.181c-1.652,0.102-3.327,0-4.967,0.158c-1.675,0-3.281,0.272-4.934,0.305 c-0.803,0.113-1.595,0.215-2.41,0.294c-0.396,0.045-0.803,0.057-1.199,0.102c-0.385,0.079-0.781,0.147-1.165,0.192 c-0.781,0.124-1.55,0.226-2.331,0.294c-0.758,0.136-1.471,0.305-2.207,0.419c-1.516,0.204-2.772,0.498-4.017,0.724 c-0.634,0.102-1.222,0.238-1.81,0.317c-0.588,0.158-1.12,0.328-1.629,0.441c-1.98,0.521-3.247,0.656-3.247,0.656 s0.272-1.245,0.973-3.168c0.181-0.487,0.385-1.007,0.622-1.573c0.283-0.566,0.645-1.132,1.041-1.777 c0.385-0.656,0.849-1.301,1.347-2.014c0.498-0.736,1.086-1.29,1.686-2.003c0.6-0.679,1.279-1.335,1.98-2.048 c0.747-0.634,1.539-1.256,2.388-1.89c0.837-0.656,1.731-1.279,2.704-1.788c0.962-0.543,1.969-1.075,3.01-1.595 c2.139-0.837,4.39-1.765,6.801-2.184c2.388-0.588,4.877-0.713,7.366-0.837c2.489,0.113,4.99,0.238,7.378,0.826 c2.41,0.407,4.662,1.347,6.801,2.173c1.041,0.52,2.048,1.052,3.01,1.595c0.487,0.283,0.962,0.532,1.414,0.837 c0.441,0.317,0.883,0.622,1.301,0.95c0.837,0.634,1.641,1.256,2.376,1.89c0.713,0.713,1.38,1.38,1.992,2.048 c0.588,0.713,1.199,1.279,1.663,1.992c0.464,0.702,0.917,1.335,1.29,1.969c0.373,0.634,0.736,1.199,1.03,1.765 c0.26,0.588,0.498,1.132,0.679,1.641c0.769,1.98,0.996,3.191,0.996,3.191S463.717,441.815,461.782,441.373z M477.16,401.622 h-24.034c-4.685,0-8.487-3.802-8.487-8.487s3.802-8.487,8.487-8.487h24.034c4.685,0,8.487,3.802,8.487,8.487 S481.844,401.622,477.16,401.622z"/> <path style="fill:#F95428;" d="M83.27,97.526c-1.593,0-3.185-0.608-4.401-1.823c-2.431-2.431-2.431-6.371,0-8.801l14.977-14.977 c2.429-2.431,6.373-2.429,8.8,0c2.431,2.431,2.431,6.371,0,8.801L87.671,95.703C86.455,96.918,84.862,97.526,83.27,97.526z"/> <path style="fill:#F95428;" d="M38.638,142.159c-1.593,0-3.185-0.608-4.401-1.823c-2.431-2.431-2.431-6.371,0-8.801l14.977-14.977 c2.429-2.431,6.373-2.429,8.8,0c2.431,2.431,2.431,6.371,0,8.801l-14.977,14.977C41.824,141.55,40.231,142.159,38.638,142.159z"/> <path style="fill:#F95428;" d="M98.247,142.159c-1.592,0-3.185-0.608-4.401-1.823L78.87,125.359c-2.431-2.431-2.431-6.371,0-8.801 c2.428-2.429,6.372-2.431,8.8,0l14.977,14.977c2.431,2.431,2.431,6.371,0,8.801C101.434,141.55,99.839,142.159,98.247,142.159z"/> <path style="fill:#F95428;" d="M53.616,97.526c-1.592,0-3.185-0.608-4.401-1.823L34.238,80.726c-2.431-2.431-2.431-6.371,0-8.801 c2.428-2.429,6.372-2.431,8.8,0l14.977,14.977c2.431,2.431,2.431,6.371,0,8.801C56.801,96.918,55.208,97.526,53.616,97.526z"/> </g> <g> <path style="fill:#FCEA81;" d="M465.262,271.769c-1.593,0-3.185-0.608-4.402-1.823c-2.429-2.431-2.429-6.371,0.001-8.801 l11.851-11.85c2.429-2.431,6.372-2.429,8.801,0c2.429,2.431,2.429,6.371-0.001,8.801l-11.851,11.849 C468.447,271.161,466.854,271.769,465.262,271.769z"/> <path style="fill:#FCEA81;" d="M429.95,307.082c-1.593,0-3.185-0.608-4.402-1.823c-2.429-2.431-2.429-6.371,0.001-8.801 l11.851-11.85c2.429-2.431,6.372-2.429,8.801,0c2.429,2.431,2.429,6.371-0.001,8.801l-11.851,11.85 C433.135,306.473,431.542,307.082,429.95,307.082z"/> <path style="fill:#FCEA81;" d="M477.111,307.082c-1.592,0-3.185-0.608-4.401-1.823l-11.851-11.85 c-2.431-2.431-2.431-6.371-0.001-8.801c2.431-2.431,6.373-2.431,8.801,0l11.851,11.85c2.431,2.431,2.431,6.371,0.001,8.801 C480.298,306.473,478.704,307.082,477.111,307.082z"/> <path style="fill:#FCEA81;" d="M441.799,271.769c-1.592,0-3.185-0.608-4.401-1.823l-11.851-11.849 c-2.431-2.431-2.431-6.371-0.001-8.801c2.431-2.431,6.373-2.431,8.801,0l11.851,11.85c2.431,2.431,2.431,6.371,0.001,8.801 C444.986,271.161,443.392,271.769,441.799,271.769z"/> </g> <path style="fill:#F2F2F2;" d="M312.668,275.738c0,0-0.645,1.584-2.003,4.085c-0.328,0.645-0.713,1.324-1.143,2.059 c-0.509,0.724-1.098,1.46-1.731,2.286c-0.634,0.826-1.358,1.663-2.127,2.591c-0.272,0.351-0.566,0.645-0.883,0.951 c-0.113,0.113-0.238,0.226-0.362,0.339c-0.441,0.407-0.894,0.837-1.358,1.267c-0.928,0.871-1.935,1.731-2.987,2.636 c-1.109,0.815-2.297,1.584-3.519,2.422c-0.611,0.419-1.245,0.826-1.89,1.233c-0.645,0.385-1.335,0.702-2.037,1.052 c-1.38,0.702-2.818,1.38-4.3,2.059c-3.055,1.041-6.235,2.263-9.629,2.772c-3.349,0.781-6.846,0.905-10.331,1.075 c-3.485-0.17-6.982-0.283-10.331-1.064c-3.395-0.509-6.574-1.731-9.629-2.772c-1.482-0.668-2.919-1.347-4.311-2.048 c-0.69-0.351-1.38-0.668-2.037-1.052c-0.634-0.419-1.267-0.815-1.878-1.233c-1.222-0.837-2.422-1.618-3.53-2.422 c-1.052-0.905-2.048-1.777-2.987-2.637c-0.464-0.441-0.905-0.86-1.347-1.279c-0.158-0.147-0.317-0.294-0.475-0.441 c-0.272-0.272-0.532-0.532-0.758-0.837c-0.735-0.894-1.448-1.72-2.071-2.535c-0.611-0.826-1.211-1.55-1.709-2.274 c-0.453-0.769-0.871-1.471-1.222-2.116c-1.414-2.58-2.003-4.119-2.003-4.119s1.675,0.509,4.255,1.55 c0.656,0.249,1.335,0.554,2.093,0.86c0.803,0.238,1.629,0.543,2.512,0.837c0.894,0.294,1.788,0.656,2.738,0.996 c0.939,0.362,2.003,0.6,3.055,0.917c1.052,0.306,2.105,0.679,3.202,1.007c1.143,0.249,2.286,0.543,3.463,0.826 c0.588,0.136,1.165,0.306,1.754,0.464c0.6,0.136,1.222,0.215,1.833,0.339c1.233,0.215,2.467,0.464,3.7,0.747 c2.569,0.238,5.103,0.803,7.751,0.905c2.614,0.339,5.284,0.249,7.932,0.407c2.659-0.158,5.33-0.057,7.943-0.396 c2.648-0.091,5.182-0.668,7.751-0.905c1.233-0.272,2.467-0.521,3.7-0.736c0.611-0.124,1.233-0.204,1.833-0.339 c0.588-0.17,1.177-0.328,1.754-0.464c1.177-0.283,2.32-0.588,3.463-0.826c1.109-0.328,2.161-0.702,3.214-1.007 c1.041-0.317,2.127-0.566,3.033-0.917c0.928-0.317,1.799-0.668,2.682-0.939c0.871-0.294,1.686-0.588,2.489-0.826 c0.792-0.339,1.494-0.668,2.161-0.928C311.027,276.213,312.668,275.738,312.668,275.738z"/> <g> <path style="fill:#4D4D4D;" d="M304.781,287.71c-0.113,0.113-0.238,0.226-0.362,0.339c-0.441,0.407-0.894,0.837-1.358,1.267 c-0.928,0.871-1.935,1.731-2.987,2.636c-1.109,0.815-2.297,1.584-3.519,2.422c-0.611,0.419-1.245,0.826-1.89,1.233 c-0.645,0.385-1.335,0.702-2.037,1.052c-1.38,0.702-2.818,1.38-4.3,2.059c-3.055,1.041-6.235,2.263-9.629,2.772 c-3.349,0.781-6.846,0.905-10.331,1.075c-3.485-0.17-6.982-0.283-10.331-1.064c-3.395-0.509-6.574-1.731-9.629-2.772 c-1.482-0.668-2.919-1.347-4.311-2.048c-0.69-0.351-1.38-0.668-2.037-1.052c-0.634-0.419-1.267-0.815-1.878-1.233 c-1.222-0.837-2.422-1.618-3.53-2.422c-1.052-0.905-2.048-1.777-2.987-2.637c-0.464-0.441-0.905-0.86-1.347-1.279 c-0.158-0.147-0.317-0.294-0.475-0.441c0.362,0.124,0.724,0.249,1.098,0.373c0.894,0.294,1.788,0.645,2.738,0.984 c0.939,0.373,2.003,0.611,3.055,0.928c1.052,0.305,2.105,0.668,3.202,1.007c1.143,0.238,2.286,0.543,3.463,0.826 c0.588,0.136,1.165,0.294,1.754,0.453c0.6,0.136,1.222,0.215,1.833,0.339c1.233,0.215,2.467,0.475,3.7,0.747 c2.569,0.249,5.103,0.815,7.751,0.905c2.614,0.351,5.284,0.249,7.932,0.419c2.659-0.158,5.33-0.057,7.943-0.407 c2.648-0.091,5.182-0.656,7.751-0.894c1.233-0.272,2.467-0.532,3.7-0.747c0.611-0.124,1.233-0.204,1.833-0.339 c0.588-0.158,1.177-0.317,1.754-0.453c1.177-0.283,2.32-0.588,3.463-0.826c1.109-0.339,2.161-0.713,3.214-1.007 c1.041-0.317,2.127-0.577,3.033-0.917c0.928-0.328,1.799-0.668,2.682-0.95C304.091,287.948,304.441,287.823,304.781,287.71z"/> <path style="fill:#4D4D4D;" d="M217.998,237.834c-4.687,0-8.487-3.8-8.487-8.487v-13.574c0-4.687,3.8-8.487,8.487-8.487 s8.487,3.8,8.487,8.487v13.574C226.485,234.034,222.685,237.834,217.998,237.834z"/> </g> <g> <path style="fill:#666666;" d="M299.34,189.182c0,0,0.023-0.225,0.098-0.612c0.087-0.375,0.175-0.966,0.365-1.636 c0.085-0.346,0.195-0.707,0.32-1.104c0.164-0.403,0.385-0.808,0.619-1.267c0.232-0.462,0.525-0.918,0.833-1.43 c0.31-0.521,0.68-0.915,1.059-1.418c0.385-0.483,0.818-0.951,1.271-1.453c0.479-0.454,0.998-0.901,1.55-1.35 c1.081-0.952,2.401-1.64,3.777-2.405c1.423-0.602,2.934-1.255,4.552-1.557c1.602-0.416,3.283-0.515,4.958-0.593 c1.676,0.077,3.357,0.166,4.961,0.58c1.619,0.299,3.131,0.955,4.556,1.552c1.377,0.764,2.699,1.451,3.78,2.403 c0.551,0.45,1.072,0.898,1.551,1.35c0.453,0.504,0.884,0.975,1.271,1.455c0.373,0.5,0.762,0.911,1.046,1.411 c0.285,0.498,0.561,0.944,0.785,1.395c0.223,0.453,0.439,0.851,0.602,1.253c0.148,0.419,0.28,0.798,0.377,1.156 c0.215,0.694,0.304,1.29,0.387,1.663c0.072,0.386,0.088,0.605,0.088,0.605s-0.234-0.006-0.63-0.044 c-0.385-0.05-0.982-0.075-1.642-0.171c-0.342-0.035-0.69-0.098-1.074-0.149c-0.408-0.019-0.811-0.076-1.249-0.11 c-0.859-0.091-1.755-0.225-2.741-0.264c-0.484-0.032-0.954-0.102-1.445-0.143c-0.508-0.007-1.009-0.033-1.507-0.07 c-0.975-0.127-2.036-0.052-3.02-0.175c-1.035,0.037-2.027-0.089-3.053-0.058c-1.009-0.076-2.03,0.005-3.043-0.067 c-1.013,0.069-2.033-0.019-3.045,0.054c-1.027-0.036-2.019,0.095-3.056,0.053c-0.986,0.122-2.048,0.046-3.023,0.174 c-0.498,0.037-0.999,0.064-1.508,0.07c-0.491,0.041-0.958,0.115-1.445,0.145c-1.005,0.054-1.84,0.149-2.678,0.222 c-0.44,0.034-0.852,0.066-1.233,0.094c-0.406,0.074-0.777,0.155-1.13,0.201c-0.685,0.121-1.283,0.149-1.663,0.198 C299.567,189.182,299.34,189.182,299.34,189.182z"/> <path style="fill:#666666;" d="M198.595,189.182c0,0,0.023-0.225,0.098-0.612c0.087-0.375,0.175-0.966,0.365-1.636 c0.085-0.346,0.195-0.707,0.32-1.104c0.164-0.403,0.385-0.808,0.619-1.267c0.232-0.462,0.525-0.918,0.833-1.43 c0.31-0.521,0.68-0.915,1.059-1.418c0.385-0.483,0.818-0.951,1.271-1.453c0.479-0.454,0.998-0.901,1.55-1.35 c1.081-0.952,2.401-1.64,3.777-2.405c1.423-0.602,2.934-1.255,4.552-1.557c1.602-0.416,3.283-0.515,4.958-0.593 c1.676,0.077,3.357,0.166,4.961,0.58c1.619,0.299,3.131,0.955,4.556,1.552c1.377,0.764,2.699,1.451,3.78,2.403 c0.551,0.45,1.072,0.898,1.551,1.35c0.453,0.504,0.884,0.975,1.271,1.455c0.373,0.5,0.762,0.911,1.046,1.411 c0.285,0.498,0.561,0.944,0.785,1.395c0.223,0.453,0.439,0.851,0.602,1.253c0.148,0.419,0.279,0.798,0.377,1.156 c0.215,0.694,0.304,1.29,0.387,1.663c0.072,0.386,0.088,0.605,0.088,0.605s-0.234-0.006-0.63-0.044 c-0.385-0.05-0.982-0.075-1.642-0.171c-0.342-0.035-0.69-0.098-1.074-0.149c-0.408-0.019-0.811-0.076-1.249-0.11 c-0.859-0.091-1.755-0.225-2.741-0.264c-0.484-0.032-0.954-0.102-1.445-0.143c-0.508-0.007-1.009-0.033-1.507-0.07 c-0.975-0.127-2.036-0.052-3.02-0.175c-1.035,0.037-2.027-0.089-3.053-0.058c-1.009-0.076-2.03,0.005-3.043-0.067 c-1.013,0.069-2.033-0.019-3.045,0.054c-1.027-0.036-2.019,0.095-3.056,0.053c-0.986,0.122-2.048,0.046-3.023,0.174 c-0.498,0.037-0.999,0.064-1.508,0.07c-0.491,0.041-0.958,0.115-1.445,0.145c-1.005,0.054-1.84,0.149-2.678,0.222 c-0.44,0.034-0.852,0.066-1.233,0.094c-0.406,0.074-0.777,0.155-1.13,0.201c-0.685,0.121-1.283,0.149-1.663,0.198 C198.821,189.182,198.595,189.182,198.595,189.182z"/> </g> <path style="fill:#4D4D4D;" d="M318.743,237.834c-4.687,0-8.487-3.8-8.487-8.487v-13.574c0-4.687,3.8-8.487,8.487-8.487 c4.687,0,8.487,3.8,8.487,8.487v13.574C327.229,234.034,323.43,237.834,318.743,237.834z"/> <path style="fill:#E0B394;" d="M281.383,203.326v40.17c0,7.186-5.826,13.013-13.013,13.013l0,0c-7.186,0-13.013-5.826-13.013-13.013 v-40.17"/> </g>
</svg>