<!DOCTYPE svg PUBLIC "-//W3C//DTD SVG 1.1//EN" "http://www.w3.org/Graphics/SVG/1.1/DTD/svg11.dtd">
<!-- Uploaded to: SVG Repo, www.svgrepo.com, Transformed by: SVG Repo Mixer Tools -->
<svg height="133px" width="133px" version="1.1" id="Layer_1" xmlns="http://www.w3.org/2000/svg" xmlns:xlink="http://www.w3.org/1999/xlink" viewBox="0 0 512.001 512.001" xml:space="preserve" fill="#000000">
<g id="SVGRepo_bgCarrier" stroke-width="0"/>
<g id="SVGRepo_tracerCarrier" stroke-linecap="round" stroke-linejoin="round"/>
<g id="SVGRepo_iconCarrier"> <path style="fill:#ABB8B9;" d="M274.699,442.658c-29.457,0-53.337-23.879-53.337-53.332c0-29.458,23.88-53.337,53.337-53.337 s53.336,23.879,53.336,53.337C328.035,418.779,304.155,442.658,274.699,442.658L274.699,442.658z M333.367,277.317 c0-29.456,23.881-53.337,53.337-53.337c29.459,0,53.336,23.881,53.336,53.337c0,29.454-23.877,53.337-53.336,53.337 C357.248,330.654,333.367,306.772,333.367,277.317L333.367,277.317z M216.03,277.317c0,29.454-23.881,53.337-53.337,53.337 c-29.457,0-53.337-23.883-53.337-53.337c0-29.456,23.88-53.337,53.337-53.337C192.149,223.981,216.03,247.862,216.03,277.317 L216.03,277.317z M292.619,277.317c0,9.895-8.02,17.917-17.92,17.917c-9.896,0-17.919-8.022-17.919-17.917 c0-9.897,8.023-17.917,17.919-17.917C284.597,259.4,292.619,267.421,292.619,277.317L292.619,277.317z M274.699,501.333 c123.721,0,224.012-100.298,224.012-224.014c0-123.72-100.292-224.014-224.012-224.014S50.686,153.599,50.686,277.317 c0,62.911,25.934,119.769,67.695,160.455C158.743,477.104,213.892,501.333,274.699,501.333L274.699,501.333z M274.699,218.651 c-29.457,0-53.337-23.883-53.337-53.337c0-29.46,23.88-53.341,53.337-53.341s53.336,23.881,53.336,53.341 C328.035,194.768,304.155,218.651,274.699,218.651z"/> <g> <path style="fill:#000003;" d="M274.701,42.635c-129.406,0-234.682,105.279-234.682,234.682c0,19.712,2.455,38.858,7.053,57.163 c-14.996-32.166-23.118-67.587-23.118-103.863c0-85.792,45.662-166.568,119.166-210.807c5.047-3.039,6.677-9.594,3.638-14.642 c-3.038-5.049-9.593-6.676-14.642-3.64C92.69,25.26,59.879,58.978,37.233,99.039C14.588,139.1,2.617,184.598,2.617,230.618 c0,41.854,10.014,83.707,28.958,121.028c18.946,37.323,46.818,70.11,80.605,94.814c0.005,0.004,0.013,0.009,0.018,0.013 c42.202,40.557,99.489,65.528,162.503,65.528c129.406,0,234.683-105.279,234.683-234.682S404.106,42.635,274.701,42.635z M274.701,490.664c-117.639,0-213.346-95.707-213.346-213.346S157.062,63.971,274.701,63.971 c117.64,0,213.347,95.707,213.347,213.346S392.342,490.664,274.701,490.664z"/> <path style="fill:#000003;" d="M112.315,195.881c1.679,0.97,3.513,1.432,5.323,1.432c3.687,0,7.272-1.914,9.249-5.336 c9.94-17.217,22.691-32.434,37.899-45.232c4.509-3.794,5.089-10.523,1.294-15.031c-3.794-4.508-10.523-5.088-15.031-1.294 c-17.111,14.398-31.456,31.519-42.64,50.889C105.464,186.411,107.213,192.935,112.315,195.881z"/> <path style="fill:#000003;" d="M437.085,358.752c-5.104-2.947-11.627-1.199-14.574,3.905 c-9.938,17.215-22.692,32.433-37.901,45.234c-4.509,3.795-5.087,10.524-1.294,15.033c2.111,2.507,5.129,3.799,8.168,3.799 c2.425,0,4.864-0.823,6.864-2.506c17.113-14.402,31.458-31.524,42.642-50.891C443.935,368.223,442.186,361.698,437.085,358.752z"/> <path style="fill:#000003;" d="M256.781,277.317c0,9.87,8.049,17.917,17.919,17.917s17.92-8.047,17.92-17.917 c0-9.87-8.05-17.924-17.92-17.924C264.83,259.395,256.781,267.447,256.781,277.317z"/> <path style="fill:#000003;" d="M274.701,229.315c35.292,0,64.005-28.712,64.005-64.005s-28.712-64.005-64.005-64.005 s-64.005,28.712-64.005,64.005S239.408,229.315,274.701,229.315z M274.701,122.642c23.528,0,42.668,19.141,42.668,42.668 s-19.141,42.668-42.668,42.668s-42.668-19.141-42.668-42.668S251.173,122.642,274.701,122.642z"/> <path style="fill:#000003;" d="M162.694,213.313c-35.292,0-64.005,28.712-64.005,64.005s28.712,64.005,64.005,64.005 s64.005-28.712,64.005-64.005S197.986,213.313,162.694,213.313z M162.694,319.986c-23.528,0-42.668-19.141-42.668-42.668 s19.141-42.668,42.668-42.668s42.668,19.141,42.668,42.668S186.221,319.986,162.694,319.986z"/> <path style="fill:#000003;" d="M274.699,325.32c-35.292,0-64.005,28.712-64.005,64.005c0,35.29,28.712,64,64.005,64 s64.005-28.71,64.005-64C338.703,354.033,309.991,325.32,274.699,325.32z M274.699,431.99c-23.528,0-42.668-19.139-42.668-42.664 c0-23.528,19.141-42.668,42.668-42.668c23.528,0,42.668,19.141,42.668,42.668C317.367,412.85,298.226,431.99,274.699,431.99z"/> <path style="fill:#000003;" d="M450.709,277.317c0-35.292-28.712-64.005-64.005-64.005S322.7,242.025,322.7,277.317 s28.712,64.005,64.005,64.005S450.709,312.61,450.709,277.317z M344.035,277.317c0-23.528,19.141-42.668,42.668-42.668 c23.528,0,42.668,19.141,42.668,42.668s-19.141,42.668-42.668,42.668C363.177,319.986,344.035,300.845,344.035,277.317z"/> <path style="fill:#000003;" d="M183.308,131.36c1.802,0,3.626-0.458,5.3-1.418l0.67-0.386c5.129-2.9,6.936-9.407,4.037-14.536 s-9.407-6.938-14.537-4.037l-0.789,0.456c-5.109,2.932-6.875,9.452-3.942,14.562C176.017,129.435,179.61,131.36,183.308,131.36z"/> <path style="fill:#000003;" d="M360.782,424.698l-0.728,0.421c-5.107,2.938-6.867,9.459-3.93,14.566 c1.974,3.432,5.566,5.352,9.258,5.352c1.804,0,3.634-0.459,5.31-1.422l0.728-0.421c5.107-2.938,6.866-9.459,3.929-14.566 C372.41,423.519,365.889,421.761,360.782,424.698z"/> </g> </g>
</svg>